<svg width="73" height="74" viewBox="0 0 73 74" fill="none" xmlns="http://www.w3.org/2000/svg">
<path d="M50.1875 27.75C50.1875 31.4299 48.7454 34.959 46.1785 37.5611C43.6116 40.1632 40.1301 41.625 36.5 41.625C32.8698 41.625 29.3884 40.1632 26.8215 37.5611C24.2546 34.959 22.8125 31.4299 22.8125 27.75C22.8125 24.0701 24.2546 20.541 26.8215 17.9389C29.3884 15.3368 32.8698 13.875 36.5 13.875C40.1301 13.875 43.6116 15.3368 46.1785 17.9389C48.7454 20.541 50.1875 24.0701 50.1875 27.75Z" fill="#333333" fill-opacity="0.85"/>
<path fill-rule="evenodd" clip-rule="evenodd" d="M0 37C0 27.187 3.84553 17.7759 10.6906 10.837C17.5357 3.8982 26.8196 0 36.5 0C46.1804 0 55.4643 3.8982 62.3094 10.837C69.1545 17.7759 73 27.187 73 37C73 46.813 69.1545 56.2241 62.3094 63.163C55.4643 70.1018 46.1804 74 36.5 74C26.8196 74 17.5357 70.1018 10.6906 63.163C3.84553 56.2241 0 46.813 0 37ZM36.5 4.625C30.4856 4.62532 24.5935 6.34718 19.502 9.59238C14.4104 12.8376 10.3262 17.4742 7.71959 22.9686C5.11295 28.4631 4.08976 34.5919 4.76781 40.6498C5.44585 46.7078 7.79755 52.4485 11.5522 57.2113C14.7916 51.9202 21.9228 46.25 36.5 46.25C51.0772 46.25 58.2038 51.9156 61.4478 57.2113C65.2024 52.4485 67.5542 46.7078 68.2322 40.6498C68.9102 34.5919 67.8871 28.4631 65.2804 22.9686C62.6738 17.4742 58.5896 12.8376 53.498 9.59238C48.4065 6.34718 42.5144 4.62532 36.5 4.625Z" fill="#333333" fill-opacity="0.85"/>
</svg>
